Release info:

General
Format                                   : Matroska
Format version                           : Version 4 / Version 2
File size                                : 687 MiB
Duration                                 : 2h 28mn
Overall bit rate                         : 646 Kbps
Movie name                               : Vishwaroop 2013  DVDScr Hindi

Video
ID                                       : 1
Format                                   : MPEG-4 Visual
Format profile                           : Advanced Simple@L5
Format settings, BVOP                    : Yes
Format settings, QPel                    : No
Format settings, GMC                     : No warppoints
Format settings, Matrix                  : Default (H.263)
Codec ID                                 : V_MS/VFW/FOURCC / XVID
Codec ID/Hint                            : XviD
Duration                                 : 2h 28mn
Bit rate                                 : 553 Kbps
Width                                    : 608 pixels
Height                                   : 240 pixels
Display aspect ratio                     : 2.533
Frame rate mode                          : Constant
Frame rate                               : 25.000 fps
Color space                              : YUV
Chroma subsampling                       : 4:2:0
Bit depth                                : 8 bits
Scan type                                : Progressive
Compression mode                         : Lossy
Bits/(Pixel*Frame)                       : 0.152
Stream size                              : 588 MiB (86%)
Title                                    : Vishwaroop 2013  DVDScr Hindi
Writing library                          : XviD 1.2.1 (UTC 2008-12-04)
Language                                 : Hindi
Default                                  : Yes
Forced                                   : No

Audio
ID                                       : 2
Format                                   : MPEG Audio
Format version                           : Version 1
Format profile                           : Layer 3
Mode                                     : Joint stereo
Mode extension                           : MS Stereo
Codec ID                                 : A_MPEG/L3
Codec ID/Hint                            : MP3
Duration                                 : 2h 28mn
Bit rate mode                            : Constant
Bit rate                                 : 80.0 Kbps
Channel(s)                               : 2 channels
Sampling rate                            : 32.0 KHz
Compression mode                         : Lossy
Stream size                              : 85.1 MiB (12%)
Title                                    : Vishwaroop 2013  DVDScr Hindi
Language                                 : Hindi
Default                                  : Yes
Forced                                   : No




Source:
credit to original movie ripper DDR (Thanks)

IMDB Info:

Ms.Nirupama was from a middle class family in Chennai, she comes to U.S to pursue her higher studies. There she marries the dance master Vishwanath and they both lead a rather happy and ... 

Director: Kamal Hassan
Writers: Kamal Hassan, Atul Tiwari
Stars: Kamal Hassan, Pooja Kumar, Andrea Jeremiah 

Genres: Action | Crime | Thriller
 
http://www.imdb.com/title/tt2199711/

Screen Shot:
 
http://www.shotpix.com/images/44376360510732295606.png 
http://www.shotpix.com/images/49322493631495153529.png 
http://www.shotpix.com/images/16939785116783831949.png 
http://www.shotpix.com/images/01774428940851746611.png 
http://www.shotpix.com/images/63961133639306200856.png